DataType=double
version=3
OpenSimVersion=4.5.2-2025-05-03-6a4c6ec41
endheader
time	q	q_dot	q_ddot	torque
2.50999999999999	-0.001139083383985574	0.05126052092372786	-1.139487861589634	-3
2.51999999999999	-0.0005669419064005057	0.06314447931725921	1.181165322468721	3
2.52999999999999	0.0001232920572533145	0.07487420988198709	1.164303202917128	3
2.53999999999999	0.0009299326383563511	0.08642106320509584	1.144597322042178	3
2.54999999999999	0.00185100965013082	0.09775683666023713	1.122095827427562	3
2.559999999999989	0.002884273401448601	0.1088538434061119	1.096853708109101	3
2.569999999999989	0.004027200194646383	0.119684980161744	1.068932663980457	3
2.579999999999989	0.005276998494290142	0.1302237935937866	1.038400958827399	3
2.589999999999989	0.006630615752194185	0.1404445451532069	1.005333257208267	3
2.599999999999989	0.008084745872384936	0.1503222742010518	0.9698104454358059	3
2.609999999999988	0.009635837298110114	0.1598328592657548	0.9319194369561998	3
2.619999999999988	0.01128010170143402	0.168953077277615	0.8917529624649685	3
2.629999999999988	0.01301352325443377	0.1776606606297086	0.8494093451460054	3
2.639999999999988	0.01483186845952396	0.1859343519186008	0.8049922614693479	3
2.649999999999987	0.01673069651499367	0.193753956222836	0.7586104880347367	3
2.659999999999987	0.01870537019044457	0.2011003907823217	0.7103776350012607	3
2.669999999999987	0.02075106718547813	0.2079557319473941	0.6604118666978185	3
2.679999999999987	0.02286279194369837	0.2143032592725772	0.6088356100641423	3
2.689999999999987	0.02503538789288012	0.220127496636818	0.5557752516270743	3
2.699999999999986	0.02726355008100671	0.2254142502793003	0.5013608237709302	3
2.709999999999986	0.02954183817681096	0.2301506436477931	0.4457256811134063	3
2.719999999999986	0.03186468980246419	0.2343251489648553	0.389006167848825	3
2.729999999999986	0.03422643416515517	0.2379276154260793	0.3313412769678591	3
2.739999999999986	0.03662130595348895	0.2409492939538674	0.2728723023064395	3
2.749999999999985	0.03904345946391868	0.2433828584399603	0.2137424844157425	3
2.759999999999985	0.04148698292180595	0.2452224234200331	0.1540966512792432	3
2.769999999999985	0.04394591296119031	0.2464635581340813	0.09408085493130657	3
2.779999999999985	0.0464142492269386	0.2471032969369788	0.03384200505416531	3
2.789999999999984	0.04888596906264298	0.247140146034446	-0.02647249935402704	3
2.799999999999984	0.05135504224744371	0.2465740865306429	-0.08671513913832217	3
2.809999999999984	0.05381544574486991	0.2454065737846345	-0.1467386438695135	3
2.819999999999984	0.05626117842681916	0.2436405330839961	-0.206396359351358	3
2.829999999999984	0.05868627573593439	0.2412803516547575	-0.2655426126658688	3
2.839999999999983	0.06108482424988234	0.2383318670376617	-0.3240330736890797	3
2.849999999999983	0.06345097611139076	0.2348023518712679	-0.3817251120353465	3
2.859999999999983	0.06577896328835828	0.2307004951326914	-0.4384781484201997	3
2.869999999999983	0.06806311162890881	0.2260363798966906	-0.4941539994695258	3
2.879999999999983	0.07029785467691731	0.2208214576833216	-0.5486172150458943	3
2.889999999999982	0.07247774721428159	0.2150685194734373	-0.6017354072105011	3
2.899999999999982	0.07459747849705095	0.20879166347987	-0.6533795699907639	3
2.909999999999982	0.07665188515344129	0.2020062597701633	-0.7034243891783895	3
2.919999999999982	0.07863596371276282	0.1947289118441868	-0.7517485414398304	3
2.929999999999982	0.08054488273535504	0.1869774152768566	-0.7982349820797651	3
2.939999999999981	0.08237399451475731	0.1787707135424808	-0.8427712208576761	3
2.949999999999981	0.08411884632453821	0.1701288511429502	-0.8852495853169884	3
2.959999999999981	0.08577519118345452	0.1610729241671068	-0.9255674711447986	3
2.969999999999981	0.08733899811390747	0.1516250284131568	-0.9636275791371975	3
2.97999999999998	0.08880646187000292	0.1418082052099666	-0.9993381383999639	3
2.98999999999998	0.09017401211289788	0.1316463850765225	-1.032613115466297	3
2.99999999999998	0.09143832201252394	0.1211643293617709	-1.06337240906176	3
3.00999999999998	0.09259631625621302	0.1103875700095292	-1.091542030291403	3
3.01999999999998	0.09364517844620815	0.09934234759519811	-1.117054268064534	3
3.029999999999979	0.09458235786951813	0.08805554778267058	-1.139847839608895	3
3.039999999999979	0.09540557562506564	0.07655463635114867	-1.159868025957741	3
3.049999999999979	0.09611283009458071	0.06486759294260797	-1.177066792320519	3
3.059999999999979	0.09670240174520311	0.05302284368142203	-1.191402893270729	3
3.069999999999979	0.09717285725327539	0.04104919281822825	-1.202841962703188	3
3.079999999999978	0.0975230529403308	0.02897575355051696	-1.21135658852764	3
3.089999999999978	0.09775213751380732	0.01683187817269732	-1.216926372076913	3
3.099999999999978	0.09785955410654673	0.004647087708568602	-1.219537972215976	3
3.109999999999978	0.09784504161066808	-0.007548998820768727	-1.219185134143943	3
3.119999999999977	0.09770863530293536	-0.01972673534046818	-1.215868702884863	3
3.129999999999977	0.09745066676027028	-0.03185651972383623	-1.209596621465575	3
3.139999999999977	0.09707176306559241	-0.04390886469944544	-1.200383913780892	3
3.149999999999977	0.09657284530570004	-0.05585446851034424	-1.188252652148259	3
3.159999999999977	0.09595512636443643	-0.06766428517227974	-1.173231909556881	3
3.169999999999976	0.09522010801591628	-0.07930959417791988	-1.155357696620379	3
3.179999999999976	0.09436957732411719	-0.09076206949418053	-1.134672883248339	3
3.189999999999976	0.0934056023566686	-0.1019938476999588	-1.111227105060938	3
3.199999999999976	0.0923305272221966	-0.1129775951118729	-1.085076654582857	3
3.209999999999976	0.09114696644210464	-0.1236865737460462	-1.056284357268338	3
3.219999999999975	0.08985779866918715	-0.1340947059645864	-1.024919432428879	3
3.229999999999975	0.08846615976698249	-0.1441766376562401	-0.9910573391588887	3
3.239999999999975	0.0869754352652716	-0.1539077998017975	-0.9547796073830082	3
3.249999999999975	0.08538925220861629	-0.1632644682762143	-0.9161736541815276	3
3.259999999999974	0.08371147041630315	-0.1722238217411702	-0.8753325855877024	3
3.269999999999974	0.08194617317351124	-0.1807639974839212	-0.8323549840922883	3
3.279999999999974	0.08009765737495085	-0.1888641450608849	-0.7873446821363446	3
3.289999999999974	0.07817042314362123	-0.1965044776074502	-0.740410521922684	3
3.299999999999974	0.07616916294870306	-0.2036663206790682	-0.6916661019290062	3
3.309999999999973	0.07409875024793061	-0.2103321584927855	-0.6412295105610849	3
3.319999999999973	0.07196422768107415	-0.216485677443051	-0.5892230474417983	3
3.329999999999973	0.06977079484239908	-0.2221118067708789	-0.5357729328906281	3
3.339999999999973	0.06752379566114881	-0.2271967562712927	-0.4810090062077282	3
3.349999999999973	0.06522870542021721	-0.231728050930414	-0.425064413436	3
3.359999999999972	0.0628911174442284	-0.2356945623905883	-0.368075285333002	3
3.369999999999972	0.06051672948922025	-0.2390865371495402	-0.3101804063411894	3
3.379999999999972	0.05811132986702721	-0.2418956214077126	-0.2515208753990008	3
3.389999999999972	0.0556807833382743	-0.2441148824866226	-0.1922397594860691	3
3.399999999999971	0.05323101680861959	-0.2457388267502373	-0.1324817408424188	3
3.409999999999971	0.05076800486351531	-0.2467634139709873	-0.072392758843358	3
3.419999999999971	0.04829775517729143	-0.2471860680920352	-0.01211964754820176	3
3.429999999999971	0.04582629383279815	-0.2470056843477587	0.04819023002854585	3
3.439999999999971	0.04335965058817134	-0.24622263271502	0.108389349850811	3
3.44999999999997	0.04090384412750503	-0.244838757678611	0.1683303959092407	3
3.45999999999997	0.03846486733232672	-0.2428573743052265	0.2278666292836	3
3.46999999999997	0.03604867261077258	-0.2402832606313418	0.2868522561153374	3
3.47999999999997	0.03366115732125045	-0.2371226463814026	0.3451427933901142	3
3.48999999999997	0.03130814932716001	-0.233383198043685	0.4025954314407517	3
3.499999999999969	0.02899539271891134	-0.2290740003420008	0.4590693920985137	3
3.509999999999969	0.02672853373904832	-0.2242055341520266	0.5144262814444801	3
3.519999999999969	0.02451310694574354	-0.2187896509213766	0.568530436142655	3
3.529999999999969	0.02235452164928972	-0.2128395436625473	0.6212492623718037	3
3.539999999999969	0.02025804865547315	-0.2063697145974964	0.6724535664133025	3
3.549999999999968	0.01822880734888022	-0.1993959395418242	0.7220178759968189	3
3.559999999999968	0.01627175314826481	-0.1919352291252738	0.7698207515537595	3
3.569999999999968	0.01439166536509486	-0.184005786953507	0.8157450865793752	3
3.579999999999968	0.0125931354953085	-0.1756269648238493	0.8596783963574586	3
3.589999999999967	0.01088055597314614	-0.166819215114878	0.9015130943559864	3
3.599999999999967	0.009258109414692942	-0.1576040404763763	0.9411467556570599	3
3.609999999999967	0.007729758377469748	-0.1480039409522615	0.9784823668394478	3
3.619999999999967	0.006299235661056396	-0.1380423586746462	1.013428561786242	3
3.629999999999967	0.004970035172324145	-0.127743620272196	1.045899842942984	3
3.639999999999966	0.003745403377399558	-0.1171328771404394	1.075816787602633	3
